<svg width="182" height="143" viewBox="0 0 182 143" fill="none" xmlns="http://www.w3.org/2000/svg">
<path d="M0.0566314 73L0.0566254 142.5L60.0566 142.5L60.0566 64L48.0566 64C48.7233 56.3333 49.39 51.6667 50.0566 50C50.0566 49.6667 50.2233 48.6667 50.5566 47C50.89 45.6667 51.5566 44.1667 52.5566 42.5C53.5566 40.8333 55.0566 39.3333 57.0566 38C58.7233 36.6667 61.2233 36 64.5566 36L64.5566 -2.54873e-05C48.5567 0.999973 36.7233 3.3333 29.0567 6.99997C21.39 10.6666 15.2233 16.1666 10.5567 23.5C6.88998 30.1666 4.22332 37.6666 2.55665 46C0.889977 54.3333 0.0566323 63.3333 0.0566314 73ZM117.057 73L117.057 142.5L177.057 142.5L177.057 64L165.057 64C165.723 56.3333 166.39 51.6667 167.057 50C167.057 49.6667 167.223 48.6667 167.557 47C167.89 45.6667 168.557 44.1667 169.557 42.5C170.557 40.8333 172.057 39.3333 174.057 38C175.723 36.6667 178.223 36 181.557 36L181.557 -1.52588e-05C165.557 0.999983 153.723 3.33331 146.057 6.99998C138.39 10.6667 132.223 16.1667 127.557 23.5C123.89 30.1667 121.223 37.6667 119.557 46C117.89 54.3333 117.057 63.3333 117.057 73Z" fill="#FFCE07" fill-opacity="0.2"/>
</svg>
