<svg width="370" height="68" viewBox="0 0 370 68" fill="none" xmlns="http://www.w3.org/2000/svg">
<path d="M9.70136 5.28635C9.69827 7.77163 7.68104 9.78384 5.19576 9.78074C2.71048 9.77765 0.698274 7.76042 0.701368 5.27514C0.704462 2.78986 2.72169 0.777655 5.20697 0.780749C7.69225 0.783843 9.70446 2.80107 9.70136 5.28635Z" fill="#FFCE07"/>
<path d="M201.701 5.52536C201.698 8.01064 199.681 10.0228 197.196 10.0198C194.71 10.0167 192.698 7.99944 192.701 5.51416C192.704 3.02888 194.722 1.01667 197.207 1.01976C199.692 1.02286 201.704 3.04008 201.701 5.52536Z" fill="#FFCE07"/>
<path d="M105.701 5.40585C105.698 7.89113 103.681 9.90334 101.196 9.90025C98.7104 9.89715 96.6982 7.87993 96.7013 5.39465C96.7044 2.90937 98.7216 0.897161 101.207 0.900255C103.692 0.903349 105.704 2.92057 105.701 5.40585Z" fill="#FFCE07"/>
<path d="M297.701 5.64487C297.698 8.13015 295.681 10.1424 293.196 10.1393C290.71 10.1362 288.698 8.11894 288.701 5.63366C288.704 3.14838 290.721 1.13618 293.207 1.13927C295.692 1.14236 297.704 3.15959 297.701 5.64487Z" fill="#FFCE07"/>
<path d="M9.65406 43.2863C9.65096 45.7716 7.63374 47.7838 5.14846 47.7807C2.66318 47.7776 0.650968 45.7604 0.654062 43.2751C0.657156 40.7899 2.67438 38.7777 5.15966 38.7807C7.64494 38.7838 9.65715 40.8011 9.65406 43.2863Z" fill="#FFCE07"/>
<path d="M201.654 43.5254C201.651 46.0106 199.634 48.0228 197.148 48.0198C194.663 48.0167 192.651 45.9994 192.654 43.5142C192.657 41.0289 194.674 39.0167 197.16 39.0198C199.645 39.0229 201.657 41.0401 201.654 43.5254Z" fill="#FFCE07"/>
<path d="M105.654 43.4059C105.651 45.8911 103.634 47.9033 101.148 47.9002C98.6631 47.8972 96.6509 45.8799 96.654 43.3946C96.6571 40.9094 98.6743 38.8972 101.16 38.9003C103.645 38.9033 105.657 40.9206 105.654 43.4059Z" fill="#FFCE07"/>
<path d="M297.654 43.6449C297.651 46.1301 295.634 48.1424 293.148 48.1393C290.663 48.1362 288.651 46.1189 288.654 43.6337C288.657 41.1484 290.674 39.1362 293.159 39.1393C295.645 39.1424 297.657 41.1596 297.654 43.6449Z" fill="#FFCE07"/>
<path d="M9.67771 24.2863C9.67461 26.7716 7.65739 28.7838 5.17211 28.7807C2.68683 28.7776 0.674619 26.7604 0.677713 24.2751C0.680807 21.7899 2.69803 19.7777 5.18331 19.7807C7.66859 19.7838 9.6808 21.8011 9.67771 24.2863Z" fill="#FFCE07"/>
<path d="M201.678 24.5254C201.674 27.0106 199.657 29.0228 197.172 29.0198C194.687 29.0167 192.674 26.9994 192.678 24.5142C192.681 22.0289 194.698 20.0167 197.183 20.0198C199.668 20.0229 201.681 22.0401 201.678 24.5254Z" fill="#FFCE07"/>
<path d="M105.678 24.4059C105.675 26.8911 103.657 28.9033 101.172 28.9002C98.6868 28.8972 96.6745 26.8799 96.6776 24.3946C96.6807 21.9094 98.698 19.8972 101.183 19.9003C103.669 19.9033 105.681 21.9206 105.678 24.4059Z" fill="#FFCE07"/>
<path d="M297.677 24.6449C297.674 27.1301 295.657 29.1424 293.172 29.1393C290.687 29.1362 288.674 27.1189 288.678 24.6337C288.681 22.1484 290.698 20.1362 293.183 20.1393C295.668 20.1424 297.681 22.1596 297.677 24.6449Z" fill="#FFCE07"/>
<path d="M9.6304 62.2863C9.62731 64.7716 7.61008 66.7838 5.1248 66.7807C2.63952 66.7776 0.627313 64.7604 0.630407 62.2751C0.633501 59.7899 2.65073 57.7777 5.13601 57.7807C7.62129 57.7838 9.63349 59.8011 9.6304 62.2863Z" fill="#FFCE07"/>
<path d="M201.63 62.5254C201.627 65.0106 199.61 67.0228 197.125 67.0198C194.639 67.0167 192.627 64.9994 192.63 62.5142C192.633 60.0289 194.651 58.0167 197.136 58.0198C199.621 58.0229 201.633 60.0401 201.63 62.5254Z" fill="#FFCE07"/>
<path d="M105.63 62.4059C105.627 64.8911 103.61 66.9033 101.125 66.9002C98.6395 66.8972 96.6272 64.8799 96.6303 62.3946C96.6334 59.9094 98.6507 57.8972 101.136 57.9003C103.621 57.9033 105.633 59.9206 105.63 62.4059Z" fill="#FFCE07"/>
<path d="M297.63 62.6449C297.627 65.1301 295.61 67.1424 293.125 67.1393C290.639 67.1362 288.627 65.1189 288.63 62.6337C288.633 60.1484 290.65 58.1362 293.136 58.1393C295.621 58.1424 297.633 60.1596 297.63 62.6449Z" fill="#FFCE07"/>
<path d="M57.7013 5.34616C57.6982 7.83144 55.681 9.84365 53.1957 9.84056C50.7104 9.83746 48.6982 7.82024 48.7013 5.33496C48.7044 2.84968 50.7216 0.837469 53.2069 0.840563C55.6922 0.843657 57.7044 2.86088 57.7013 5.34616Z" fill="#FFCE07"/>
<path d="M249.701 5.58518C249.698 8.07045 247.681 10.0827 245.196 10.0796C242.71 10.0765 240.698 8.05925 240.701 5.57397C240.704 3.08869 242.722 1.07648 245.207 1.07958C247.692 1.08267 249.704 3.0999 249.701 5.58518Z" fill="#FFCE07"/>
<path d="M153.701 5.46567C153.698 7.95095 151.681 9.96316 149.196 9.96006C146.71 9.95697 144.698 7.93974 144.701 5.45446C144.704 2.96918 146.722 0.956976 149.207 0.96007C151.692 0.963164 153.704 2.98039 153.701 5.46567Z" fill="#FFCE07"/>
<path d="M345.701 5.70468C345.698 8.18996 343.681 10.2022 341.195 10.1991C338.71 10.196 336.698 8.17876 336.701 5.69348C336.704 3.2082 338.721 1.19599 341.207 1.19908C343.692 1.20218 345.704 3.2194 345.701 5.70468Z" fill="#FFCE07"/>
<path d="M57.654 43.346C57.6509 45.8313 55.6337 47.8435 53.1484 47.8404C50.6631 47.8373 48.6509 45.8201 48.654 43.3348C48.6571 40.8496 50.6743 38.8373 53.1596 38.8404C55.6449 38.8435 57.6571 40.8608 57.654 43.346Z" fill="#FFCE07"/>
<path d="M249.654 43.5851C249.651 46.0703 247.634 48.0825 245.148 48.0794C242.663 48.0764 240.651 46.0591 240.654 43.5738C240.657 41.0886 242.674 39.0764 245.159 39.0795C247.645 39.0825 249.657 41.0998 249.654 43.5851Z" fill="#FFCE07"/>
<path d="M153.654 43.4655C153.651 45.9508 151.634 47.963 149.148 47.9599C146.663 47.9568 144.651 45.9396 144.654 43.4543C144.657 40.9691 146.674 38.9569 149.16 38.9599C151.645 38.963 153.657 40.9803 153.654 43.4655Z" fill="#FFCE07"/>
<path d="M345.654 43.7046C345.651 46.1898 343.633 48.202 341.148 48.199C338.663 48.1959 336.651 46.1786 336.654 43.6934C336.657 41.2081 338.674 39.1959 341.159 39.199C343.645 39.2021 345.657 41.2193 345.654 43.7046Z" fill="#FFCE07"/>
<path d="M57.6777 24.346C57.6746 26.8313 55.6574 28.8435 53.1721 28.8404C50.6868 28.8373 48.6746 26.8201 48.6777 24.3348C48.6808 21.8496 50.698 19.8373 53.1833 19.8404C55.6686 19.8435 57.6808 21.8608 57.6777 24.346Z" fill="#FFCE07"/>
<path d="M249.678 24.5852C249.674 27.0705 247.657 29.0827 245.172 29.0796C242.687 29.0765 240.674 27.0593 240.678 24.574C240.681 22.0887 242.698 20.0765 245.183 20.0796C247.668 20.0827 249.681 22.0999 249.678 24.5852Z" fill="#FFCE07"/>
<path d="M153.678 24.4655C153.675 26.9508 151.657 28.963 149.172 28.9599C146.687 28.9568 144.675 26.9396 144.678 24.4543C144.681 21.9691 146.698 19.9569 149.183 19.9599C151.668 19.963 153.681 21.9803 153.678 24.4655Z" fill="#FFCE07"/>
<path d="M345.677 24.7047C345.674 27.19 343.657 29.2022 341.172 29.1991C338.687 29.196 336.674 27.1788 336.677 24.6935C336.681 22.2082 338.698 20.196 341.183 20.1991C343.668 20.2022 345.681 22.2194 345.677 24.7047Z" fill="#FFCE07"/>
<path d="M57.6304 62.346C57.6273 64.8313 55.61 66.8435 53.1248 66.8404C50.6395 66.8373 48.6273 64.8201 48.6304 62.3348C48.6335 59.8496 50.6507 57.8373 53.136 57.8404C55.6212 57.8435 57.6335 59.8608 57.6304 62.346Z" fill="#FFCE07"/>
<path d="M249.63 62.5851C249.627 65.0703 247.61 67.0825 245.125 67.0794C242.639 67.0764 240.627 65.0591 240.63 62.5738C240.633 60.0886 242.651 58.0764 245.136 58.0795C247.621 58.0825 249.633 60.0998 249.63 62.5851Z" fill="#FFCE07"/>
<path d="M153.63 62.4655C153.627 64.9508 151.61 66.963 149.125 66.9599C146.639 66.9568 144.627 64.9396 144.63 62.4543C144.633 59.9691 146.651 57.9569 149.136 57.9599C151.621 57.963 153.633 59.9803 153.63 62.4655Z" fill="#FFCE07"/>
<path d="M345.63 62.7046C345.627 65.1898 343.61 67.202 341.125 67.199C338.639 67.1959 336.627 65.1786 336.63 62.6934C336.633 60.2081 338.65 58.1959 341.136 58.199C343.621 58.2021 345.633 60.2193 345.63 62.7046Z" fill="#FFCE07"/>
<path d="M33.7013 5.31625C33.6982 7.80153 31.681 9.81374 29.1957 9.81065C26.7105 9.80755 24.6983 7.79033 24.7013 5.30505C24.7044 2.81977 26.7217 0.807562 29.2069 0.810656C31.6922 0.81375 33.7044 2.83098 33.7013 5.31625Z" fill="#FFCE07"/>
<path d="M225.701 5.55527C225.698 8.04055 223.681 10.0528 221.196 10.0497C218.71 10.0466 216.698 8.02934 216.701 5.54406C216.704 3.05878 218.722 1.04658 221.207 1.04967C223.692 1.05276 225.704 3.06999 225.701 5.55527Z" fill="#FFCE07"/>
<path d="M129.701 5.43576C129.698 7.92104 127.681 9.93325 125.196 9.93016C122.71 9.92706 120.698 7.90984 120.701 5.42456C120.704 2.93928 122.722 0.927069 125.207 0.930163C127.692 0.933257 129.704 2.95048 129.701 5.43576Z" fill="#FFCE07"/>
<path d="M321.701 5.67478C321.698 8.16005 319.681 10.1723 317.196 10.1692C314.71 10.1661 312.698 8.14885 312.701 5.66357C312.704 3.17829 314.721 1.16608 317.207 1.16918C319.692 1.17227 321.704 3.1895 321.701 5.67478Z" fill="#FFCE07"/>
<path d="M33.654 43.3163C33.6509 45.8015 31.6337 47.8137 29.1484 47.8106C26.6632 47.8076 24.6509 45.7903 24.654 43.3051C24.6571 40.8198 26.6744 38.8076 29.1596 38.8107C31.6449 38.8137 33.6571 40.831 33.654 43.3163Z" fill="#FFCE07"/>
<path d="M225.654 43.5553C225.651 46.0405 223.634 48.0528 221.148 48.0497C218.663 48.0466 216.651 46.0293 216.654 43.5441C216.657 41.0588 218.674 39.0466 221.159 39.0497C223.645 39.0528 225.657 41.07 225.654 43.5553Z" fill="#FFCE07"/>
<path d="M129.654 43.4358C129.651 45.921 127.634 47.9332 125.148 47.9302C122.663 47.9271 120.651 45.9098 120.654 43.4246C120.657 40.9393 122.674 38.9271 125.16 38.9302C127.645 38.9333 129.657 40.9505 129.654 43.4358Z" fill="#FFCE07"/>
<path d="M321.654 43.6748C321.651 46.1601 319.633 48.1723 317.148 48.1692C314.663 48.1661 312.651 46.1489 312.654 43.6636C312.657 41.1783 314.674 39.1661 317.159 39.1692C319.645 39.1723 321.657 41.1895 321.654 43.6748Z" fill="#FFCE07"/>
<path d="M33.6777 24.3163C33.6746 26.8015 31.6574 28.8137 29.1721 28.8106C26.6868 28.8076 24.6746 26.7903 24.6777 24.3051C24.6808 21.8198 26.698 19.8076 29.1833 19.8107C31.6686 19.8137 33.6808 21.831 33.6777 24.3163Z" fill="#FFCE07"/>
<path d="M225.678 24.5553C225.674 27.0405 223.657 29.0528 221.172 29.0497C218.687 29.0466 216.674 27.0293 216.678 24.5441C216.681 22.0588 218.698 20.0466 221.183 20.0497C223.668 20.0528 225.681 22.07 225.678 24.5553Z" fill="#FFCE07"/>
<path d="M129.678 24.4358C129.675 26.921 127.657 28.9332 125.172 28.9302C122.687 28.9271 120.675 26.9098 120.678 24.4246C120.681 21.9393 122.698 19.9271 125.183 19.9302C127.669 19.9333 129.681 21.9505 129.678 24.4358Z" fill="#FFCE07"/>
<path d="M321.677 24.6748C321.674 27.1601 319.657 29.1723 317.172 29.1692C314.687 29.1661 312.674 27.1489 312.677 24.6636C312.681 22.1783 314.698 20.1661 317.183 20.1692C319.668 20.1723 321.681 22.1895 321.677 24.6748Z" fill="#FFCE07"/>
<path d="M33.6304 62.3161C33.6273 64.8014 31.6101 66.8136 29.1248 66.8105C26.6395 66.8074 24.6273 64.7902 24.6304 62.3049C24.6335 59.8196 26.6507 57.8074 29.136 57.8105C31.6213 57.8136 33.6335 59.8309 33.6304 62.3161Z" fill="#FFCE07"/>
<path d="M225.63 62.5551C225.627 65.0404 223.61 67.0526 221.125 67.0495C218.639 67.0464 216.627 65.0292 216.63 62.5439C216.633 60.0587 218.651 58.0465 221.136 58.0495C223.621 58.0526 225.633 60.0699 225.63 62.5551Z" fill="#FFCE07"/>
<path d="M129.63 62.4356C129.627 64.9209 127.61 66.9331 125.125 66.93C122.639 66.9269 120.627 64.9097 120.63 62.4244C120.633 59.9392 122.651 57.9269 125.136 57.93C127.621 57.9331 129.633 59.9504 129.63 62.4356Z" fill="#FFCE07"/>
<path d="M321.63 62.6748C321.627 65.1601 319.61 67.1723 317.125 67.1692C314.639 67.1661 312.627 65.1489 312.63 62.6636C312.633 60.1783 314.65 58.1661 317.136 58.1692C319.621 58.1723 321.633 60.1895 321.63 62.6748Z" fill="#FFCE07"/>
<path d="M81.7013 5.37595C81.6982 7.86123 79.681 9.87344 77.1957 9.87034C74.7104 9.86725 72.6982 7.85002 72.7013 5.36474C72.7044 2.87946 74.7216 0.867254 77.2069 0.870348C79.6922 0.873442 81.7044 2.89067 81.7013 5.37595Z" fill="#FFCE07"/>
<path d="M273.701 5.61496C273.698 8.10024 271.681 10.1124 269.196 10.1094C266.71 10.1063 264.698 8.08904 264.701 5.60376C264.704 3.11848 266.721 1.10627 269.207 1.10936C271.692 1.11246 273.704 3.12968 273.701 5.61496Z" fill="#FFCE07"/>
<path d="M177.701 5.49545C177.698 7.98073 175.681 9.99294 173.196 9.98985C170.71 9.98675 168.698 7.96953 168.701 5.48425C168.704 2.99897 170.722 0.986761 173.207 0.989855C175.692 0.992949 177.704 3.01017 177.701 5.49545Z" fill="#FFCE07"/>
<path d="M369.701 5.73447C369.698 8.21975 367.681 10.232 365.195 10.2289C362.71 10.2258 360.698 8.20854 360.701 5.72326C360.704 3.23798 362.721 1.22577 365.207 1.22887C367.692 1.23196 369.704 3.24919 369.701 5.73447Z" fill="#FFCE07"/>
<path d="M81.654 43.3759C81.6509 45.8612 79.6337 47.8734 77.1484 47.8703C74.6631 47.8672 72.6509 45.85 72.654 43.3647C72.6571 40.8795 74.6743 38.8673 77.1596 38.8703C79.6449 38.8734 81.6571 40.8907 81.654 43.3759Z" fill="#FFCE07"/>
<path d="M273.654 43.615C273.651 46.1002 271.634 48.1124 269.148 48.1094C266.663 48.1063 264.651 46.089 264.654 43.6038C264.657 41.1185 266.674 39.1063 269.159 39.1094C271.645 39.1125 273.657 41.1297 273.654 43.615Z" fill="#FFCE07"/>
<path d="M177.654 43.4955C177.651 45.9807 175.634 47.9929 173.148 47.9898C170.663 47.9868 168.651 45.9695 168.654 43.4842C168.657 40.999 170.674 38.9868 173.16 38.9899C175.645 38.9929 177.657 41.0102 177.654 43.4955Z" fill="#FFCE07"/>
<path d="M369.654 43.7345C369.651 46.2197 367.633 48.232 365.148 48.2289C362.663 48.2258 360.651 46.2085 360.654 43.7233C360.657 41.238 362.674 39.2258 365.159 39.2289C367.645 39.232 369.657 41.2492 369.654 43.7345Z" fill="#FFCE07"/>
<path d="M81.6776 24.3759C81.6746 26.8612 79.6573 28.8734 77.1721 28.8703C74.6868 28.8672 72.6746 26.85 72.6777 24.3647C72.6807 21.8795 74.698 19.8673 77.1833 19.8703C79.6685 19.8734 81.6807 21.8907 81.6776 24.3759Z" fill="#FFCE07"/>
<path d="M273.677 24.615C273.674 27.1002 271.657 29.1124 269.172 29.1094C266.687 29.1063 264.674 27.089 264.678 24.6038C264.681 22.1185 266.698 20.1063 269.183 20.1094C271.668 20.1125 273.681 22.1297 273.677 24.615Z" fill="#FFCE07"/>
<path d="M177.678 24.4955C177.674 26.9807 175.657 28.9929 173.172 28.9898C170.687 28.9868 168.674 26.9695 168.678 24.4842C168.681 21.999 170.698 19.9868 173.183 19.9899C175.668 19.9929 177.681 22.0102 177.678 24.4955Z" fill="#FFCE07"/>
<path d="M369.677 24.7345C369.674 27.2197 367.657 29.232 365.172 29.2289C362.687 29.2258 360.674 27.2085 360.677 24.7233C360.681 22.238 362.698 20.2258 365.183 20.2289C367.668 20.232 369.681 22.2492 369.677 24.7345Z" fill="#FFCE07"/>
<path d="M81.6303 62.3759C81.6273 64.8612 79.61 66.8734 77.1247 66.8703C74.6395 66.8672 72.6273 64.85 72.6304 62.3647C72.6334 59.8795 74.6507 57.8673 77.136 57.8703C79.6212 57.8734 81.6334 59.8907 81.6303 62.3759Z" fill="#FFCE07"/>
<path d="M273.63 62.615C273.627 65.1002 271.61 67.1124 269.125 67.1094C266.639 67.1063 264.627 65.089 264.63 62.6038C264.633 60.1185 266.651 58.1063 269.136 58.1094C271.621 58.1125 273.633 60.1297 273.63 62.615Z" fill="#FFCE07"/>
<path d="M177.63 62.4955C177.627 64.9807 175.61 66.9929 173.125 66.9898C170.639 66.9868 168.627 64.9695 168.63 62.4842C168.633 59.999 170.651 57.9868 173.136 57.9899C175.621 57.9929 177.633 60.0102 177.63 62.4955Z" fill="#FFCE07"/>
<path d="M369.63 62.7345C369.627 65.2197 367.61 67.232 365.125 67.2289C362.639 67.2258 360.627 65.2085 360.63 62.7233C360.633 60.238 362.65 58.2258 365.136 58.2289C367.621 58.232 369.633 60.2492 369.63 62.7345Z" fill="#FFCE07"/>
</svg>
