<svg width="81" height="66" viewBox="0 0 81 66" fill="none" xmlns="http://www.w3.org/2000/svg">
<path d="M9 4.5C9 6.98528 6.98528 9 4.5 9C2.01472 9 0 6.98528 0 4.5C0 2.01472 2.01472 0 4.5 0C6.98528 0 9 2.01472 9 4.5Z" fill="#FFCE07"/>
<path d="M9 42.5C9 44.9853 6.98528 47 4.5 47C2.01472 47 0 44.9853 0 42.5C0 40.0147 2.01472 38 4.5 38C6.98528 38 9 40.0147 9 42.5Z" fill="#FFCE07"/>
<path d="M9 23.5C9 25.9853 6.98528 28 4.5 28C2.01472 28 0 25.9853 0 23.5C0 21.0147 2.01472 19 4.5 19C6.98528 19 9 21.0147 9 23.5Z" fill="#FFCE07"/>
<path d="M9 61.5C9 63.9853 6.98528 66 4.5 66C2.01472 66 0 63.9853 0 61.5C0 59.0147 2.01472 57 4.5 57C6.98528 57 9 59.0147 9 61.5Z" fill="#FFCE07"/>
<path d="M57 4.5C57 6.98528 54.9853 9 52.5 9C50.0147 9 48 6.98528 48 4.5C48 2.01472 50.0147 0 52.5 0C54.9853 0 57 2.01472 57 4.5Z" fill="#FFCE07"/>
<path d="M57 42.5C57 44.9853 54.9853 47 52.5 47C50.0147 47 48 44.9853 48 42.5C48 40.0147 50.0147 38 52.5 38C54.9853 38 57 40.0147 57 42.5Z" fill="#FFCE07"/>
<path d="M57 23.5C57 25.9853 54.9853 28 52.5 28C50.0147 28 48 25.9853 48 23.5C48 21.0147 50.0147 19 52.5 19C54.9853 19 57 21.0147 57 23.5Z" fill="#FFCE07"/>
<path d="M57 61.5C57 63.9853 54.9853 66 52.5 66C50.0147 66 48 63.9853 48 61.5C48 59.0147 50.0147 57 52.5 57C54.9853 57 57 59.0147 57 61.5Z" fill="#FFCE07"/>
<path d="M33 4.5C33 6.98528 30.9853 9 28.5 9C26.0147 9 24 6.98528 24 4.5C24 2.01472 26.0147 0 28.5 0C30.9853 0 33 2.01472 33 4.5Z" fill="#FFCE07"/>
<path d="M33 42.5C33 44.9853 30.9853 47 28.5 47C26.0147 47 24 44.9853 24 42.5C24 40.0147 26.0147 38 28.5 38C30.9853 38 33 40.0147 33 42.5Z" fill="#FFCE07"/>
<path d="M33 23.5C33 25.9853 30.9853 28 28.5 28C26.0147 28 24 25.9853 24 23.5C24 21.0147 26.0147 19 28.5 19C30.9853 19 33 21.0147 33 23.5Z" fill="#FFCE07"/>
<path d="M33 61.5C33 63.9853 30.9853 66 28.5 66C26.0147 66 24 63.9853 24 61.5C24 59.0147 26.0147 57 28.5 57C30.9853 57 33 59.0147 33 61.5Z" fill="#FFCE07"/>
<path d="M81 4.5C81 6.98528 78.9853 9 76.5 9C74.0147 9 72 6.98528 72 4.5C72 2.01472 74.0147 0 76.5 0C78.9853 0 81 2.01472 81 4.5Z" fill="#FFCE07"/>
<path d="M81 42.5C81 44.9853 78.9853 47 76.5 47C74.0147 47 72 44.9853 72 42.5C72 40.0147 74.0147 38 76.5 38C78.9853 38 81 40.0147 81 42.5Z" fill="#FFCE07"/>
<path d="M81 23.5C81 25.9853 78.9853 28 76.5 28C74.0147 28 72 25.9853 72 23.5C72 21.0147 74.0147 19 76.5 19C78.9853 19 81 21.0147 81 23.5Z" fill="#FFCE07"/>
<path d="M81 61.5C81 63.9853 78.9853 66 76.5 66C74.0147 66 72 63.9853 72 61.5C72 59.0147 74.0147 57 76.5 57C78.9853 57 81 59.0147 81 61.5Z" fill="#FFCE07"/>
</svg>
